<?xml version="1.0" encoding="UTF-8"?>
<svg width="140px" height="28px" viewBox="0 0 140 28" version="1.1" xmlns="http://www.w3.org/2000/svg" xmlns:xlink="http://www.w3.org/1999/xlink">
    <title>Group 6 Copy 3</title>
    <defs>
        <linearGradient x1="0%" y1="35.7304525%" x2="100%" y2="35.7304525%" id="linearGradient-1">
            <stop stop-color="#1C84A6" offset="0%"></stop>
            <stop stop-color="#386BB2" offset="25.2712057%"></stop>
            <stop stop-color="#7356A3" offset="49.4423174%"></stop>
            <stop stop-color="#903B94" offset="71.6984241%"></stop>
            <stop stop-color="#C54961" offset="100%"></stop>
        </linearGradient>
    </defs>
    <g id="Page-1" stroke="none" stroke-width="1" fill="none" fill-rule="evenodd">
        <g id="Logos-with-Pipe" transform="translate(-494.000000, -221.000000)">
            <g id="Group-4" transform="translate(494.000000, 221.000000)">
                <rect id="Rectangle-Copy-3" fill="#555555" x="76" y="0" width="1" height="24" rx="0.5"></rect>
                <path d="M94.3761122,23.5728 C94.6632026,23.5858667 94.9241939,23.4878667 95.1590861,23.2788 C95.3548295,23.0958667 95.459226,22.8541333 95.4722756,22.5536 C95.4853252,22.2530667 95.400503,21.9982667 95.2178091,21.7892 L95.2178091,21.7892 L92.0467649,17.9084 C92.4774005,17.8169333 92.8786746,17.6732 93.2505872,17.4772 C93.6224998,17.2812 93.9422142,17.0264 94.2097302,16.7128 C94.4772463,16.3992 94.6893017,16.0202667 94.8458965,15.576 C95.0024913,15.1317333 95.0807887,14.6156 95.0807887,14.0276 C95.0807887,13.322 94.9600802,12.6980667 94.7186633,12.1558 C94.4772463,11.6135333 94.1477448,11.1627333 93.7301587,10.8034 C93.3125727,10.4440667 92.8297388,10.1696667 92.2816571,9.9802 C91.7335753,9.7907333 91.1463449,9.696 90.5199658,9.696 L90.5199658,9.696 L86.5267991,9.696 C86.0309156,9.696 85.6524782,9.8462667 85.3914869,10.1468 C85.1304956,10.4473333 85,10.8066667 85,11.2248 L85,11.2248 L85,22.4752 C85,22.7757333 85.1011341,23.0338 85.3034024,23.2494 C85.5056706,23.465 85.75035,23.5728 86.0374404,23.5728 C86.3245308,23.5728 86.5724725,23.465 86.7812656,23.2494 C86.9900586,23.0338 87.0944551,22.7757333 87.0944551,22.4752 L87.0944551,22.4752 L87.0944551,18.3592 L89.1301872,18.3592 C89.4042281,18.3592 89.6162835,18.4147333 89.7663535,18.5258 C89.9164235,18.6368667 90.0697559,18.7904 90.2263506,18.9864 L90.2263506,18.9864 L93.6518613,23.22 C93.8476048,23.4421333 94.0890218,23.5597333 94.3761122,23.5728 Z M90.2850737,16.36 L87.0944551,16.36 L87.0944551,11.7344 L90.3829454,11.7344 C91.2703158,11.7344 91.922794,11.9369333 92.3403801,12.342 C92.7579662,12.7470667 92.9667592,13.3154667 92.9667592,14.0472 C92.9667592,14.7528 92.7677533,15.3146667 92.3697416,15.7328 C91.9717299,16.1509333 91.2768406,16.36 90.2850737,16.36 L90.2850737,16.36 Z M101.853513,23.6708 C102.140603,23.6708 102.437481,23.6544667 102.744145,23.6218 C103.05081,23.5891333 103.344425,23.5434 103.624991,23.4846 C103.905557,23.4258 104.166548,23.3539333 104.407965,23.269 C104.649382,23.1840667 104.854913,23.0893333 105.024557,22.9848 C105.2464,22.8541333 105.389945,22.7136667 105.455193,22.5634 C105.52044,22.4131333 105.553064,22.2596 105.553064,22.1028 C105.553064,21.9590667 105.52044,21.8218667 105.455193,21.6912 C105.389945,21.5605333 105.295335,21.4527333 105.171365,21.3678 C105.047394,21.2828667 104.897324,21.2306 104.721155,21.211 C104.544985,21.1914 104.352504,21.2208 104.143711,21.2992 C103.765274,21.4429333 103.383574,21.5572667 102.998612,21.6422 C102.61365,21.7271333 102.245,21.7696 101.892661,21.7696 C101.122737,21.7696 100.49962,21.5605333 100.023311,21.1424 C99.5470022,20.7242667 99.3088476,20.1232 99.3088476,19.3392 L99.3088476,19.3392 L99.3088476,19.104 L104.848388,19.104 C105.279023,19.104 105.595475,18.9864 105.797744,18.7512 C106.000012,18.516 106.101146,18.2154667 106.101146,17.8496 L106.101146,17.8496 L106.101146,17.3008 C106.101146,16.6474667 105.996749,16.0496667 105.787956,15.5074 C105.579163,14.9651333 105.285548,14.5012667 104.907111,14.1158 C104.528673,13.7303333 104.071939,13.4330667 103.536907,13.224 C103.001874,13.0149333 102.408119,12.9104 101.755641,12.9104 C101.142311,12.9104 100.571393,13.0051333 100.042886,13.1946 C99.5143782,13.3840667 99.0543811,13.6584667 98.6628942,14.0178 C98.2714072,14.3771333 97.9582177,14.8116 97.7233255,15.3212 C97.4884333,15.8308 97.3448881,16.3992 97.2926899,17.0264 C97.2796403,17.1832 97.2698531,17.3628667 97.2633284,17.5654 C97.2568036,17.7679333 97.2535412,17.977 97.2535412,18.1926 C97.2535412,18.4082 97.2568036,18.6270667 97.2633284,18.8492 C97.2698531,19.0713333 97.2796403,19.2738667 97.2926899,19.4568 C97.3318386,20.0709333 97.4655966,20.6360667 97.693964,21.1522 C97.9223314,21.6683333 98.2322585,22.1126 98.6237455,22.485 C99.0152324,22.8574 99.4817543,23.1481333 100.023311,23.3572 C100.564868,23.5662667 101.174935,23.6708 101.853513,23.6708 Z M103.850096,17.4576 L99.3088476,17.4576 C99.2827485,16.6344 99.4752296,15.9778 99.8862908,15.4878 C100.297352,14.9978 100.920469,14.7528 101.755641,14.7528 C102.512516,14.7528 103.103009,14.9782 103.527119,15.429 C103.95123,15.8798 104.137187,16.4776 104.084988,17.2224 C104.058889,17.3792 103.980592,17.4576 103.850096,17.4576 L103.850096,17.4576 Z M111.758132,23.6708 C112.267065,23.6708 112.740112,23.6316 113.177272,23.5532 C113.614433,23.4748 114.00592,23.3768 114.351733,23.2592 C114.697547,23.1416 114.994424,23.0207333 115.242366,22.8966 C115.490308,22.7724667 115.686051,22.6646667 115.829596,22.5732 C115.973142,22.4686667 116.071013,22.3608667 116.123212,22.2498 C116.17541,22.1387333 116.201509,21.9917333 116.201509,21.8088 L116.201509,21.8088 L116.201509,16.7128 C116.201509,15.3930667 115.839384,14.4294 115.115133,13.8218 C114.390882,13.2142 113.402377,12.9104 112.149619,12.9104 C111.549339,12.9104 110.971896,12.9724667 110.417289,13.0966 C109.862683,13.2207333 109.441835,13.3546667 109.154744,13.4984 C108.893753,13.616 108.714321,13.763 108.61645,13.9394 C108.518578,14.1158 108.469642,14.2889333 108.469642,14.4588 C108.469642,14.7593333 108.600138,15.0010667 108.861129,15.184 C109.12212,15.3669333 109.467934,15.3865333 109.898569,15.2428 C110.17261,15.1382667 110.495587,15.0402667 110.867499,14.9488 C111.239412,14.8573333 111.627637,14.8116 112.032173,14.8116 C112.802097,14.8116 113.356704,14.9618667 113.695993,15.2624 C114.035281,15.5629333 114.204926,16.0464 114.204926,16.7128 L114.204926,16.7128 L114.204926,17.3596 C113.748191,17.2550667 113.333867,17.1734 112.961955,17.1146 C112.590042,17.0558 112.175718,17.0264 111.718984,17.0264 C111.027357,17.0264 110.433601,17.1146 109.937718,17.291 C109.441835,17.4674 109.030773,17.7058667 108.704534,18.0064 C108.378295,18.3069333 108.136878,18.6532 107.980283,19.0452 C107.823689,19.4372 107.745391,19.8488 107.745391,20.28 C107.745391,20.7634667 107.830213,21.211 107.999858,21.6226 C108.169502,22.0342 108.420706,22.3935333 108.75347,22.7006 C109.086234,23.0076667 109.50382,23.2461333 110.006228,23.416 C110.508636,23.5858667 111.092604,23.6708 111.758132,23.6708 Z M111.934301,21.848 C111.229625,21.848 110.694593,21.7075333 110.329205,21.4266 C109.963817,21.1456667 109.781123,20.7373333 109.781123,20.2016 C109.781123,19.7312 109.973604,19.3686 110.358566,19.1138 C110.743529,18.859 111.23615,18.7316 111.83643,18.7316 C112.280115,18.7316 112.678127,18.761 113.030465,18.8198 C113.382803,18.8786 113.77429,18.9602667 114.204926,19.0648 L114.204926,19.0648 L114.204926,21.2404 C114.100529,21.3188 113.865637,21.4396667 113.500249,21.603 C113.134861,21.7663333 112.612879,21.848 111.934301,21.848 Z M119.822763,23.5532 C120.122903,23.5532 120.370845,23.4519333 120.566588,23.2494 C120.762332,23.0468667 120.860204,22.7953333 120.860204,22.4948 L120.860204,22.4948 L120.860204,10.5584 C120.860204,10.2578667 120.759069,10.0063333 120.556801,9.8038 C120.354533,9.6012667 120.109854,9.5 119.822763,9.5 C119.522623,9.5 119.274681,9.6012667 119.078938,9.8038 C118.883195,10.0063333 118.785323,10.2578667 118.785323,10.5584 L118.785323,10.5584 L118.785323,22.4948 C118.785323,22.7953333 118.889719,23.0468667 119.098512,23.2494 C119.307305,23.4519333 119.548722,23.5532 119.822763,23.5532 Z M126.732508,23.6708 C127.110945,23.6708 127.495907,23.6414 127.887394,23.5826 C128.278881,23.5238 128.624695,23.4290667 128.924835,23.2984 C129.185826,23.1938667 129.36852,23.0566667 129.472916,22.8868 C129.577313,22.7169333 129.629511,22.534 129.629511,22.338 C129.629511,22.1942667 129.600149,22.0538 129.541426,21.9166 C129.482703,21.7794 129.401144,21.6683333 129.296747,21.5834 C129.192351,21.4984667 129.058593,21.4364 128.895473,21.3972 C128.732353,21.358 128.552922,21.3645333 128.357178,21.4168 C128.135336,21.4821333 127.910231,21.5474667 127.681863,21.6128 C127.453496,21.6781333 127.208817,21.7108 126.947825,21.7108 C126.464992,21.7108 126.112653,21.5768667 125.890811,21.309 C125.668968,21.0411333 125.558047,20.6589333 125.558047,20.1624 L125.558047,20.1624 L125.558047,15.282 L128.259307,15.282 C128.520298,15.282 128.748665,15.1938 128.944409,15.0174 C129.140152,14.841 129.238024,14.6221333 129.238024,14.3608 C129.238024,14.0994667 129.140152,13.8806 128.944409,13.7042 C128.748665,13.5278 128.520298,13.4396 128.259307,13.4396 L128.259307,13.4396 L125.558047,13.4396 L125.558047,11.95 C125.558047,11.6494667 125.456913,11.3979333 125.254644,11.1954 C125.052376,10.9928667 124.807697,10.8916 124.520606,10.8916 C124.220466,10.8916 123.972525,10.9928667 123.776781,11.1954 C123.581038,11.3979333 123.483166,11.6494667 123.483166,11.95 L123.483166,11.95 L123.483166,20.1428 C123.483166,20.6393333 123.548414,21.1032 123.67891,21.5344 C123.809405,21.9656 124.008411,22.338 124.275927,22.6516 C124.543443,22.9652 124.879469,23.2134667 125.284006,23.3964 C125.688542,23.5793333 126.171376,23.6708 126.732508,23.6708 Z M132.683109,27.2968 C132.9702,27.2968 133.263815,27.1988 133.563955,27.0028 C133.968491,26.7414667 134.415439,26.2972 134.904797,25.67 C135.394156,25.0428 135.834579,24.2588 136.226066,23.318 L136.226066,23.318 L139.906043,14.5568 C139.984341,14.3738667 140.013702,14.1909333 139.994128,14.008 C139.974553,13.8250667 139.91583,13.6617333 139.817959,13.518 C139.720087,13.3742667 139.596116,13.2599333 139.446046,13.175 C139.295976,13.0900667 139.123069,13.0476 138.927326,13.0476 C138.666334,13.0476 138.447754,13.1227333 138.271585,13.273 C138.095416,13.4232667 137.961658,13.6225333 137.870311,13.8708 L137.870311,13.8708 L135.443092,20.1624 C135.416993,20.2016 135.384369,20.2212 135.34522,20.2212 C135.306072,20.2212 135.279972,20.2016 135.266923,20.1624 L135.266923,20.1624 L132.624386,13.8316 C132.546089,13.6094667 132.418855,13.4232667 132.242686,13.273 C132.066517,13.1227333 131.841412,13.0476 131.567371,13.0476 C131.397727,13.0476 131.23787,13.0900667 131.0878,13.175 C130.93773,13.2599333 130.813759,13.371 130.715887,13.5082 C130.618016,13.6454 130.559292,13.8054667 130.539718,13.9884 C130.520144,14.1713333 130.549505,14.3608 130.627803,14.5568 L130.627803,14.5568 L134.190334,22.7692 C133.929343,23.4748 133.609628,24.0464667 133.231191,24.4842 C132.852753,24.9219333 132.487366,25.2518667 132.135027,25.474 C131.991482,25.5785333 131.883823,25.7092 131.812051,25.866 C131.740278,26.0228 131.704392,26.1730667 131.704392,26.3168 C131.704392,26.6173333 131.802264,26.8558 131.998007,27.0322 C132.19375,27.2086 132.422118,27.2968 132.683109,27.2968 Z" id="Realty" fill="#555555" fill-rule="nonzero"></path>
                <path d="M6.6698565,24 C7.5157895,24 8.3020734,23.9343365 9.0287081,23.8030096 C9.7553429,23.6716826 10.4060606,23.5075239 10.9808612,23.3105335 C11.5556619,23.1135431 12.0491228,22.9110807 12.461244,22.7031464 C12.8733652,22.495212 13.1987241,22.3146375 13.4373206,22.1614227 C13.6759171,21.9863201 13.8385965,21.8057456 13.9253589,21.619699 C14.0121212,21.4336525 14.0555024,21.1874145 14.0555024,20.880985 L14.0555024,20.880985 L14.0555024,12.3447332 C14.0555024,10.1340629 13.4535885,8.5198358 12.2497608,7.502052 C11.045933,6.4842681 9.4028708,5.9753762 7.3205742,5.9753762 C6.322807,5.9753762 5.3629984,6.0793434 4.4411483,6.2872777 C3.5192982,6.495212 2.8197767,6.7195622 2.3425837,6.9603283 C1.90877193,7.1573187 1.61052632,7.4035568 1.44784689,7.6990424 C1.28516746,7.994528 1.20382775,8.2845417 1.20382775,8.5690834 C1.20382775,9.0725034 1.42073365,9.4774282 1.85454545,9.7838577 C2.2883573,10.0902873 2.8631579,10.123119 3.5789474,9.8823529 C4.0344498,9.7072503 4.5712919,9.5430917 5.1894737,9.3898769 C5.8076555,9.2366621 6.4529506,9.1600547 7.1253589,9.1600547 C8.4051037,9.1600547 9.3269537,9.4117647 9.8909091,9.9151847 C10.4548644,10.4186047 10.7368421,11.2284542 10.7368421,12.3447332 L10.7368421,12.3447332 L10.7368421,13.4281806 C9.9776715,13.253078 9.2889952,13.1162791 8.6708134,13.0177839 C8.0526316,12.9192886 7.3639553,12.870041 6.6047847,12.870041 C5.4551834,12.870041 4.4682616,13.0177839 3.6440191,13.3132695 C2.8197767,13.6087551 2.1365231,14.0082079 1.59425837,14.5116279 C1.05199362,15.0150479 0.6507177,15.5950752 0.39043062,16.25171 C0.13014354,16.9083447 0,17.5978112 0,18.3201094 C0,19.129959 0.14098884,19.879617 0.42296651,20.5690834 C0.70494418,21.2585499 1.12248804,21.8604651 1.67559809,22.374829 C2.2287081,22.8891929 2.922807,23.2886457 3.7578947,23.5731874 C4.5929825,23.8577291 5.5636364,24 6.6698565,24 Z M6.9626794,20.9466484 C5.7913876,20.9466484 4.9020734,20.7113543 4.2947368,20.2407661 C3.6874003,19.7701778 3.3837321,19.0861833 3.3837321,18.1887825 C3.3837321,17.4008208 3.7036683,16.7934337 4.3435407,16.3666211 C4.9834131,15.9398085 5.8022329,15.7264022 6.8,15.7264022 C7.5374801,15.7264022 8.1990431,15.7756498 8.784689,15.874145 C9.3703349,15.9726402 10.0210526,16.1094391 10.7368421,16.2845417 L10.7368421,16.2845417 L10.7368421,19.9288646 C10.5633174,20.0601915 10.1728868,20.2626539 9.5655502,20.5362517 C8.9582137,20.8098495 8.0905901,20.9466484 6.9626794,20.9466484 Z M22.937799,24 C23.7186603,24 24.4669856,23.9233926 25.1827751,23.7701778 C25.8985646,23.6169631 26.5438596,23.4309166 27.1186603,23.2120383 C27.6934609,22.9931601 28.1923445,22.7688098 28.615311,22.5389877 C29.0382775,22.3091655 29.3582137,22.1176471 29.5751196,21.9644323 C29.8354067,21.7893297 30.0035088,21.6032832 30.0794258,21.4062927 C30.1553429,21.2093023 30.1933014,20.9575923 30.1933014,20.6511628 L30.1933014,20.6511628 L30.1933014,2.002736 C30.1933014,1.49931601 30.030622,1.07797538 29.7052632,0.73871409 C29.3799043,0.3994528 28.9677831,0.22982216 28.4688995,0.22982216 C27.9917065,0.22982216 27.585008,0.3994528 27.2488038,0.73871409 C26.9125997,1.07797538 26.7444976,1.49931601 26.7444976,2.002736 L26.7444976,2.002736 L26.7444976,6.9274966 C26.2022329,6.6867305 25.5515152,6.4678523 24.7923445,6.2708618 C24.0331738,6.0738714 23.2631579,5.9753762 22.4822967,5.9753762 C20.3783094,5.9753762 18.7352472,6.5608755 17.55311,7.7318741 C16.3709729,8.9028728 15.6931419,10.5170999 15.5196172,12.5745554 C15.4979266,12.880985 15.4816587,13.2366621 15.4708134,13.6415869 C15.4599681,14.0465116 15.4545455,14.4678523 15.4545455,14.9056088 C15.4545455,15.3433653 15.4599681,15.7701778 15.4708134,16.1860465 C15.4816587,16.6019152 15.4979266,16.9521204 15.5196172,17.2366621 C15.6063796,18.2435021 15.8341308,19.1627907 16.2028708,19.994528 C16.5716108,20.8262654 17.0759171,21.5376197 17.7157895,22.128591 C18.3556619,22.7195622 19.1094099,23.1792066 19.9770335,23.5075239 C20.8446571,23.8358413 21.8315789,24 22.937799,24 Z M23.0028708,20.6511628 C20.508453,20.6511628 19.1636364,19.370725 18.9684211,16.8098495 C18.9467305,16.5471956 18.9304625,16.246238 18.9196172,15.9069767 C18.9087719,15.5677155 18.9033493,15.2175103 18.9033493,14.8563611 C18.9033493,14.495212 18.9087719,14.1450068 18.9196172,13.8057456 C18.9304625,13.4664843 18.9467305,13.1874145 18.9684211,12.9685363 C19.0334928,11.7647059 19.369697,10.8563611 19.9770335,10.2435021 C20.58437,9.630643 21.5062201,9.3242134 22.7425837,9.3242134 C23.5885167,9.3242134 24.3802233,9.4391245 25.1177033,9.6689466 C25.8551834,9.8987688 26.3974482,10.123119 26.7444976,10.3419973 L26.7444976,10.3419973 L26.7444976,19.4692202 C26.5709729,19.6005472 26.3486443,19.7318741 26.077512,19.8632011 C25.8063796,19.994528 25.4972887,20.120383 25.1502392,20.2407661 C24.8031898,20.3611491 24.4452951,20.4596443 24.076555,20.5362517 C23.707815,20.6128591 23.3499203,20.6511628 23.0028708,20.6511628 Z M38.2947368,24 C39.1406699,24 39.9269537,23.9343365 40.6535885,23.8030096 C41.3802233,23.6716826 42.030941,23.5075239 42.6057416,23.3105335 C43.1805423,23.1135431 43.6740032,22.9110807 44.0861244,22.7031464 C44.4982456,22.495212 44.8236045,22.3146375 45.062201,22.1614227 C45.3007974,21.9863201 45.4634769,21.8057456 45.5502392,21.619699 C45.6370016,21.4336525 45.6803828,21.1874145 45.6803828,20.880985 L45.6803828,20.880985 L45.6803828,12.3447332 C45.6803828,10.1340629 45.0784689,8.5198358 43.8746411,7.502052 C42.6708134,6.4842681 41.0277512,5.9753762 38.9454545,5.9753762 C37.9476874,5.9753762 36.9878788,6.0793434 36.0660287,6.2872777 C35.1441786,6.495212 34.4446571,6.7195622 33.9674641,6.9603283 C33.5336523,7.1573187 33.2354067,7.4035568 33.0727273,7.6990424 C32.9100478,7.994528 32.8287081,8.2845417 32.8287081,8.5690834 C32.8287081,9.0725034 33.045614,9.4774282 33.4794258,9.7838577 C33.9132376,10.0902873 34.4880383,10.123119 35.2038278,9.8823529 C35.6593301,9.7072503 36.1961722,9.5430917 36.8143541,9.3898769 C37.4325359,9.2366621 38.0778309,9.1600547 38.7502392,9.1600547 C40.0299841,9.1600547 40.9518341,9.4117647 41.5157895,9.9151847 C42.0797448,10.4186047 42.3617225,11.2284542 42.3617225,12.3447332 L42.3617225,12.3447332 L42.3617225,13.4281806 C41.6025518,13.253078 40.9138756,13.1162791 40.2956938,13.0177839 C39.677512,12.9192886 38.9888357,12.870041 38.2296651,12.870041 C37.0800638,12.870041 36.0931419,13.0177839 35.2688995,13.3132695 C34.4446571,13.6087551 33.7614035,14.0082079 33.2191388,14.5116279 C32.676874,15.0150479 32.2755981,15.5950752 32.015311,16.25171 C31.7550239,16.9083447 31.6248804,17.5978112 31.6248804,18.3201094 C31.6248804,19.129959 31.7658692,19.879617 32.0478469,20.5690834 C32.3298246,21.2585499 32.7473684,21.8604651 33.3004785,22.374829 C33.8535885,22.8891929 34.5476874,23.2886457 35.3827751,23.5731874 C36.2178628,23.8577291 37.1885167,24 38.2947368,24 Z M38.5875598,20.9466484 C37.4162679,20.9466484 36.5269537,20.7113543 35.9196172,20.2407661 C35.3122807,19.7701778 35.0086124,19.0861833 35.0086124,18.1887825 C35.0086124,17.4008208 35.3285486,16.7934337 35.9684211,16.3666211 C36.6082935,15.9398085 37.4271132,15.7264022 38.4248804,15.7264022 C39.1623604,15.7264022 39.8239234,15.7756498 40.4095694,15.874145 C40.9952153,15.9726402 41.645933,16.1094391 42.3617225,16.2845417 L42.3617225,16.2845417 L42.3617225,19.9288646 C42.1881978,20.0601915 41.7977671,20.2626539 41.1904306,20.5362517 C40.5830941,20.8098495 39.7154705,20.9466484 38.5875598,20.9466484 Z M60.4516746,23.8030096 C60.9505582,23.8030096 61.3626794,23.6333789 61.6880383,23.2941176 C62.0133971,22.9548564 62.1760766,22.5335157 62.1760766,22.0300958 L62.1760766,22.0300958 L62.1760766,12.9028728 C62.1760766,10.6703146 61.5795853,8.9575923 60.3866029,7.7647059 C59.1936204,6.5718194 57.414992,5.9753762 55.0507177,5.9753762 C54.2047847,5.9753762 53.4185008,6.0355677 52.691866,6.1559508 C51.9652313,6.2763338 51.3199362,6.4295486 50.7559809,6.6155951 C50.1920255,6.8016416 49.7039872,6.998632 49.291866,7.2065663 C48.8797448,7.4145007 48.554386,7.6060192 48.3157895,7.7811218 C48.077193,7.9562244 47.9036683,8.1367989 47.7952153,8.3228454 C47.6867624,8.5088919 47.6325359,8.7770178 47.6325359,9.127223 L47.6325359,9.127223 L47.6325359,22.0300958 C47.6325359,22.5335157 47.8060606,22.9548564 48.15311,23.2941176 C48.5001595,23.6333789 48.9014354,23.8030096 49.3569378,23.8030096 C49.8558214,23.8030096 50.2679426,23.6333789 50.5933014,23.2941176 C50.9186603,22.9548564 51.0813397,22.5335157 51.0813397,22.0300958 L51.0813397,22.0300958 L51.0813397,10.2435021 C51.4500797,10.002736 51.9869219,9.7893297 52.691866,9.6032832 C53.3968102,9.4172367 54.1505582,9.3242134 54.95311,9.3242134 C55.4519936,9.3242134 55.9291866,9.3953488 56.384689,9.5376197 C56.8401914,9.6798906 57.2414673,9.9042408 57.5885167,10.2106703 C57.9355662,10.5170999 58.2121212,10.9056088 58.4181818,11.376197 C58.6242424,11.8467852 58.7272727,12.4103967 58.7272727,13.0670315 L58.7272727,13.0670315 L58.7272727,22.0300958 C58.7272727,22.5335157 58.9007974,22.9548564 59.2478469,23.2941176 C59.5948963,23.6333789 59.9961722,23.8030096 60.4516746,23.8030096 Z M66.0803828,3.9398085 C66.6226475,3.9398085 67.0781499,3.7428181 67.44689,3.3488372 C67.81563,2.9548564 68,2.4842681 68,1.9370725 C68,1.38987688 67.81563,0.93023256 67.44689,0.55813953 C67.0781499,0.18604651 66.6226475,0 66.0803828,0 C65.5164274,0 65.0500797,0.18604651 64.6813397,0.55813953 C64.3125997,0.93023256 64.1282297,1.38987688 64.1282297,1.9370725 C64.1282297,2.4842681 64.3125997,2.9548564 64.6813397,3.3488372 C65.0500797,3.7428181 65.5164274,3.9398085 66.0803828,3.9398085 Z M66.0803828,23.8030096 C66.5792663,23.8030096 66.9913876,23.6333789 67.3167464,23.2941176 C67.6421053,22.9548564 67.8047847,22.5335157 67.8047847,22.0300958 L67.8047847,22.0300958 L67.8047847,7.9781122 C67.8047847,7.4746922 67.6366826,7.0533516 67.3004785,6.7140903 C66.9642743,6.374829 66.5575758,6.2051984 66.0803828,6.2051984 C65.5814992,6.2051984 65.169378,6.374829 64.8440191,6.7140903 C64.5186603,7.0533516 64.3559809,7.4746922 64.3559809,7.9781122 L64.3559809,7.9781122 L64.3559809,22.0300958 C64.3559809,22.5335157 64.5295056,22.9548564 64.876555,23.2941176 C65.2236045,23.6333789 65.6248804,23.8030096 66.0803828,23.8030096 Z" id="adani" fill="url(#linearGradient-1)" fill-rule="nonzero"></path>
            </g>
        </g>
    </g>
</svg>